<svg width="81" height="80" viewBox="0 0 81 80" fill="none" xmlns="http://www.w3.org/2000/svg">
<g clip-path="url(#clip0_756_13682)">
<path d="M45.1992 42.9901C47.5252 41.8271 49.97 40.8769 52.3752 39.8822C56.8359 38.0411 61.2223 36.0417 65.5345 33.884C69.6125 31.845 74.0814 29.9248 77.5209 26.9208C77.8456 26.6642 78.1264 26.3567 78.3524 26.0102C78.7731 25.2975 78.788 24.179 78.1149 23.6099C77.737 23.3176 77.6711 23.0858 77.1943 23.0556C78.4371 22.3611 79.0553 21.3735 79.7035 20.106C80.6636 18.2205 77.3379 17.3791 76.1304 17.102C73.9528 16.6071 71.7257 16.1122 69.5036 16.3399C67.7495 16.4949 66.1078 17.2685 64.8714 18.5224C64.539 18.8828 64.2605 19.2896 64.0448 19.7299C63.4361 20.977 63.1096 22.6993 61.7585 23.0012C60.5905 23.2635 59.5611 22.2143 58.3981 21.952C56.6363 21.5561 55.018 23.016 53.9737 24.4908C52.9295 25.9656 51.9545 27.6928 50.2521 28.2867C48.1587 29.0092 45.8871 27.6928 43.6848 27.8957C42.3684 28.0195 41.1707 28.6727 40.0127 29.3161L34.1085 32.5874C33.7189 32.8502 33.2661 33.004 32.797 33.0328C32.2376 32.9536 31.7177 32.6989 31.3123 32.3053L28.0163 29.7021C25.9675 28.0789 23.785 26.4011 21.1966 26.03C18.9547 25.7132 16.7029 26.4259 14.5946 27.2622C11.3085 28.56 8.15883 30.1796 5.19158 32.0974C3.91969 32.9189 2.6379 33.8494 1.96483 35.2054C1.50152 36.3016 1.26261 37.4796 1.26212 38.6697C1.02127 42.5398 0.894233 46.4148 0.881035 50.2948C0.881035 53.2642 0.994848 56.4068 2.72204 58.8021C4.85011 61.7715 8.75489 62.7069 11.7886 64.7409C13.9563 66.186 15.7478 68.2497 18.2223 69.1307C18.4203 69.1999 18.6182 69.2643 18.8161 69.3138C19.1067 69.4007 19.4026 69.4685 19.702 69.5167C23.0723 70.066 26.4969 68.5269 29.6445 66.8195C30.1097 66.572 30.565 66.3246 31.0104 66.0722C31.9408 65.5773 32.8416 65.0527 33.7027 64.6172C34.5307 64.2618 35.287 63.7587 35.9347 63.1325C36.5913 62.318 37.0549 61.3654 37.2907 60.3462C38.2382 57.1004 38.7377 53.7403 38.7754 50.3592C38.7754 49.3397 38.7754 48.2756 39.2109 47.3551C39.6989 46.4959 40.4015 45.778 41.2499 45.2716C42.51 44.4175 43.8298 43.655 45.1992 42.9901ZM77.1943 23.0556C71.6298 25.6844 69.6152 26.6361 64.6074 29.0019C60.6533 30.8699 51.9217 34.995 46.0603 37.764L61.6273 30.4098L77.1943 23.0556ZM11.8628 56.7384C9.52193 56.3177 7.46814 54.2639 7.44835 51.7894C7.45463 51.2571 7.53116 50.7279 7.67598 50.2156C7.91257 49.1271 8.47743 48.1373 9.29431 47.3799C9.94685 46.8878 10.7193 46.5796 11.5314 46.4873C12.3434 46.3951 13.1655 46.5221 13.9117 46.8553C15.1055 47.3989 16.1311 48.2536 16.8811 49.3298C17.0741 49.5921 17.2522 49.8593 17.4205 50.1315C17.786 50.6666 18.02 51.2804 18.1035 51.923C18.128 52.4093 18.0488 52.8951 17.8709 53.3483C17.5203 54.3074 16.9103 55.1502 16.1091 55.7832C14.8787 56.6447 13.3588 56.9878 11.8777 56.7384H11.8628Z" fill="#9EBBEF"/>
<path d="M77.1943 23.0556C77.6711 23.0858 77.737 23.3176 78.1149 23.6099C78.788 24.179 78.7731 25.2975 78.3524 26.0102C78.1264 26.3567 77.8456 26.6642 77.5209 26.9208C74.0814 29.9248 69.6125 31.845 65.5345 33.884C61.2223 36.0417 56.8359 38.0411 52.3752 39.8822C49.97 40.8769 47.5252 41.8271 45.1992 42.9901C43.8298 43.655 42.51 44.4175 41.2499 45.2716C40.4015 45.778 39.6989 46.4959 39.2109 47.3551C38.7754 48.2756 38.7754 49.3397 38.7754 50.3592C38.7377 53.7403 38.2382 57.1004 37.2907 60.3462C37.0549 61.3654 36.5913 62.318 35.9347 63.1325C35.287 63.7587 34.5307 64.2618 33.7027 64.6172C32.8416 65.0527 31.9408 65.5773 31.0104 66.0722C30.565 66.3246 30.1097 66.572 29.6445 66.8195C26.4969 68.5269 23.0723 70.066 19.702 69.5167C19.4026 69.4685 19.1067 69.4007 18.8161 69.3138C18.6182 69.2643 18.4203 69.1999 18.2223 69.1307C15.7478 68.2497 13.9563 66.186 11.7886 64.7409C8.75489 62.7069 4.85011 61.7715 2.72204 58.8021C0.994848 56.4068 0.881035 53.2642 0.881035 50.2948C0.894233 46.4148 1.02127 42.5398 1.26212 38.6697C1.26261 37.4796 1.50152 36.3016 1.96483 35.2054C2.6379 33.8494 3.91969 32.9189 5.19158 32.0974C8.15883 30.1796 11.3085 28.56 14.5946 27.2622C16.7029 26.4259 18.9547 25.7132 21.1966 26.03C23.785 26.4011 25.9675 28.0789 28.0163 29.7021L31.3123 32.3053C31.7177 32.6989 32.2376 32.9536 32.797 33.0328C33.2661 33.004 33.7189 32.8502 34.1085 32.5874L40.0127 29.3161C41.1707 28.6727 42.3684 28.0195 43.6848 27.8957C45.8871 27.6928 48.1587 29.0092 50.2521 28.2867C51.9545 27.6928 52.9295 25.9656 53.9737 24.4908C55.018 23.016 56.6363 21.5561 58.3981 21.952C59.5611 22.2143 60.5905 23.2635 61.7585 23.0012C63.1096 22.6993 63.4361 20.977 64.0448 19.7299C64.2605 19.2896 64.539 18.8828 64.8714 18.5224C66.1078 17.2685 67.7495 16.4949 69.5036 16.3399C71.7257 16.1122 73.9528 16.6071 76.1304 17.102C77.3379 17.3791 80.6636 18.2205 79.7035 20.106C79.0553 21.3735 78.4371 22.3611 77.1943 23.0556ZM77.1943 23.0556C71.6298 25.6844 69.6152 26.6361 64.6074 29.0019C60.6533 30.8699 51.9217 34.995 46.0603 37.764L61.6273 30.4098L77.1943 23.0556ZM11.8628 56.7384C9.52193 56.3177 7.46814 54.2639 7.44835 51.7894C7.45463 51.2571 7.53116 50.7279 7.67598 50.2156C7.91257 49.1271 8.47743 48.1373 9.29431 47.3799C9.94685 46.8878 10.7193 46.5796 11.5314 46.4873C12.3434 46.3951 13.1655 46.5221 13.9117 46.8553C15.1055 47.3989 16.1311 48.2536 16.8811 49.3298C17.0741 49.5921 17.2522 49.8593 17.4205 50.1315C17.786 50.6666 18.02 51.2804 18.1035 51.923C18.128 52.4093 18.0488 52.8951 17.8709 53.3483C17.5203 54.3074 16.9103 55.1502 16.1091 55.7832C14.8787 56.6447 13.3588 56.9878 11.8777 56.7384H11.8628Z" stroke="black" stroke-width="0.52" stroke-linecap="round" stroke-linejoin="round"/>
</g>
<defs>
<clipPath id="clip0_756_13682">
<rect width="80" height="80" fill="white" transform="translate(0.5)"/>
</clipPath>
</defs>
</svg>
